<svg width="22" height="22" viewBox="0 0 22 22" fill="none" xmlns="http://www.w3.org/2000/svg">
<path d="M14.2004 18.1999C14.2004 19.5254 13.1259 20.5999 11.8004 20.5999C10.4749 20.5999 3.80039 20.5999 3.80039 20.5999C2.47491 20.5999 1.40039 19.5254 1.40039 18.1999C1.40039 16.8744 1.40039 11.5254 1.40039 10.1999C1.40039 8.87442 2.47491 7.7999 3.80039 7.7999L11.8004 7.7999C13.1259 7.7999 14.2004 8.87442 14.2004 10.1999V18.1999Z" stroke="black" stroke-width="2" stroke-linecap="round" stroke-linejoin="round"/>
<path d="M20.6004 11.7999C20.6004 13.1254 19.5259 14.1999 18.2004 14.1999C16.8749 14.1999 10.2004 14.1999 10.2004 14.1999C8.87491 14.1999 7.80039 13.1254 7.80039 11.7999C7.80039 10.4744 7.80039 5.12539 7.80039 3.7999C7.80039 2.47442 8.87491 1.3999 10.2004 1.3999L18.2004 1.3999C19.5259 1.3999 20.6004 2.47442 20.6004 3.7999V11.7999Z" stroke="black" stroke-width="2" stroke-linecap="round" stroke-linejoin="round"/>
</svg>
