<svg width="900" height="719" viewBox="0 0 900 719" fill="none" xmlns="http://www.w3.org/2000/svg">
<path d="M161.972 386.039H142.365V719.277H161.972V386.039Z" fill="#FFBE21"/>
<path d="M161.98 390.619H142.365" stroke="#A15842" stroke-width="4" stroke-miterlimit="10"/>
<path d="M53.3946 652.41C55.3807 646.714 59.0897 641.777 64.0075 638.284C68.9253 634.79 74.8081 632.913 80.8404 632.913C86.8727 632.913 92.7556 634.79 97.6734 638.284C102.591 641.777 106.3 646.714 108.286 652.41C110.182 646.972 113.65 642.22 118.251 638.756C122.851 635.292 128.377 633.273 134.128 632.955C131.56 628.38 128.503 624.097 125.011 620.182L114.457 608.311C111.176 604.623 109.11 600.015 108.539 595.112C107.967 590.209 108.919 585.249 111.264 580.905L120.221 564.261C117.706 566.791 103.169 580.403 81.1039 580.403C59.0386 580.403 44.5014 566.791 41.9868 564.261H41.9468L50.9118 580.905C53.2466 585.258 54.1836 590.224 53.595 595.128C53.0065 600.032 50.9212 604.635 47.6228 608.311L37.0772 620.134C33.5781 624.049 30.5133 628.332 27.9365 632.907C33.6249 633.303 39.0711 635.363 43.5977 638.831C48.1242 642.299 51.5311 647.021 53.3946 652.41Z" fill="#4756DF"/>
<path d="M135.732 669.23C129.698 669.231 123.813 671.11 118.895 674.606C113.977 678.102 110.269 683.042 108.286 688.74C106.303 683.041 102.596 678.1 97.6775 674.603C92.7593 671.106 86.8744 669.228 80.8399 669.228C74.8053 669.228 68.9205 671.106 64.0022 674.603C59.084 678.1 55.3764 683.041 53.394 688.74C50.9936 681.853 46.0931 676.12 39.6641 672.676C33.235 669.232 25.7467 668.33 18.6836 670.148C19.0891 688.57 26.5134 706.143 39.4396 719.276H122.615C135.515 706.171 142.938 688.643 143.371 670.26C140.882 669.577 138.313 669.23 135.732 669.23Z" fill="#4756DF"/>
<path d="M81.04 580.434C103.105 580.434 117.642 566.823 120.157 564.292H41.9229C44.4375 566.799 58.9747 580.434 81.04 580.434Z" fill="#30242A"/>
<path d="M53.3946 688.741C55.377 683.041 59.0846 678.1 64.0028 674.603C68.9211 671.107 74.8059 669.228 80.8405 669.228C86.875 669.228 92.7599 671.107 97.6781 674.603C102.596 678.1 106.304 683.041 108.286 688.741C110.707 681.781 115.681 676 122.202 672.569C128.724 669.138 136.305 668.312 143.412 670.26C143.74 657.217 140.538 644.328 134.144 632.955C128.393 633.273 122.867 635.292 118.267 638.756C113.666 642.219 110.198 646.972 108.302 652.41C106.316 646.714 102.607 641.777 97.6894 638.283C92.7716 634.79 86.8887 632.913 80.8564 632.913C74.8241 632.913 68.9413 634.79 64.0235 638.283C59.1057 641.777 55.3967 646.714 53.4106 652.41C51.5356 647.034 48.1237 642.327 43.5981 638.873C39.0725 635.419 33.6323 633.369 27.9526 632.979C21.5871 644.313 18.391 657.152 18.7002 670.148C25.7633 668.33 33.2516 669.233 39.6806 672.676C46.1097 676.12 51.0101 681.854 53.4106 688.741H53.3946Z" fill="#3EC1F3"/>
<path d="M86.8359 578.15C88.4326 568.379 95.6892 529.645 113.939 508.594" stroke="#30242A" stroke-width="4" stroke-miterlimit="10" stroke-linecap="round"/>
<path d="M78.4127 578.431C78.293 567.334 77.1514 512.85 66.3184 480.343" stroke="#30242A" stroke-width="4" stroke-miterlimit="10" stroke-linecap="round"/>
<path d="M126.428 540.306C142.429 533.266 154.116 524.64 152.532 521.04C150.948 517.441 136.693 520.23 120.692 527.27C104.691 534.311 93.0038 542.937 94.5877 546.536C96.1716 550.136 110.427 547.347 126.428 540.306Z" fill="#30242A"/>
<path d="M126.419 441.263C132.172 433.486 134.637 425.556 131.925 423.55C129.213 421.544 122.352 426.223 116.599 434C110.847 441.777 108.382 449.707 111.093 451.713C113.805 453.719 120.667 449.04 126.419 441.263Z" fill="#30242A"/>
<path d="M39.787 545.836C60.6466 542.681 77.1049 537.137 76.5478 533.454C75.9907 529.77 58.6291 529.341 37.7696 532.496C16.91 535.651 0.451621 541.194 1.00872 544.878C1.56582 548.562 18.9275 548.99 39.787 545.836Z" fill="#30242A"/>
<path d="M25.2141 491.423V491.479C28.2962 493.202 30.6207 496.018 31.7295 499.37C32.8383 502.723 32.6508 506.369 31.204 509.591C29.7572 512.812 27.1561 515.374 23.9135 516.772C20.6709 518.171 17.0221 518.303 13.6865 517.144V517.192C31.1695 525.048 47.9419 525.646 51.1351 518.533C54.3284 511.42 42.705 499.278 25.2141 491.423Z" fill="#FF7235"/>
<path d="M76.9044 434.487C73.1843 433.521 68.3465 439.149 64.81 447.859C60.5551 437.281 54.3841 430.2 50.225 431.573C46.0658 432.946 45.3233 442.303 48.2052 453.335C40.1743 448.45 32.9416 446.805 30.5227 449.799C27.4412 453.615 33.3807 463.514 43.7906 471.92C46.7522 474.333 49.9388 476.455 53.3064 478.258C53.8805 475.978 55.0151 473.878 56.6072 472.147C58.1993 470.417 60.1986 469.112 62.4232 468.35C64.6479 467.589 67.0275 467.396 69.3459 467.788C71.6644 468.179 73.8482 469.144 75.699 470.595C77.2592 467.237 78.5046 463.741 79.4191 460.153C82.78 447.212 81.6543 435.717 76.9044 434.487Z" fill="#FF7235"/>
<path d="M158.061 493.251C156.911 489.578 149.575 488.461 140.314 490.057C147.036 480.853 149.782 471.872 146.421 469.07C143.06 466.268 134.718 470.587 126.879 478.865C126.783 469.461 124.348 462.452 120.532 461.981C115.67 461.382 110.402 471.664 108.773 484.932C108.29 488.726 108.173 492.556 108.422 496.372C110.661 495.65 113.046 495.5 115.359 495.935C117.671 496.37 119.838 497.376 121.663 498.862C123.488 500.348 124.912 502.266 125.806 504.443C126.7 506.619 127.036 508.985 126.783 511.324C130.46 510.859 134.086 510.057 137.616 508.929C150.365 504.962 159.521 497.929 158.061 493.251Z" fill="#FF7235"/>
<path d="M121.77 498.943C119.944 497.42 117.763 496.384 115.429 495.93C113.096 495.476 110.685 495.62 108.422 496.348C108.877 502.663 110.474 507.525 112.876 509.289C115.12 511.364 120.309 512.059 126.767 511.301C127.019 508.988 126.694 506.65 125.822 504.493C124.95 502.337 123.558 500.43 121.77 498.943Z" fill="#30242A"/>
<path d="M62.567 468.303C60.3098 469.048 58.2773 470.351 56.6583 472.091C55.0394 473.832 53.8865 475.953 53.3066 478.258C58.8948 481.212 63.8603 482.409 66.6544 481.324C69.6001 480.525 72.9291 476.478 75.6992 470.594C73.8695 469.158 71.7126 468.197 69.4212 467.798C67.1298 467.398 64.775 467.572 62.567 468.303Z" fill="#30242A"/>
<path d="M26.7713 515.124C25.2701 514.287 24.138 512.917 23.5993 511.284C23.0605 509.652 23.1544 507.877 23.8622 506.311C24.57 504.745 25.8403 503.501 27.4214 502.827C29.0024 502.153 30.779 502.097 32.3994 502.67C32.2119 500.361 31.4583 498.133 30.2052 496.183C28.9521 494.234 27.2381 492.624 25.2146 491.494L13.6631 517.144C15.8464 517.906 18.1835 518.121 20.469 517.768C22.7546 517.416 24.9187 516.508 26.7713 515.124Z" fill="#F5EBDD"/>
<path d="M23.8336 506.319C23.1373 507.885 23.0527 509.655 23.5965 511.28C24.1402 512.905 25.2729 514.268 26.7713 515.1C28.6901 513.673 30.2137 511.781 31.1984 509.602C32.1831 507.423 32.5964 505.029 32.3994 502.646C30.7716 502.067 28.9849 502.123 27.3968 502.804C25.8086 503.485 24.536 504.74 23.8336 506.319Z" fill="#4856DF"/>
<path d="M551.403 519.204H348.369L351.802 505.585H440.925L474.917 372.651C479.548 354.543 490.075 338.493 504.837 327.03C519.6 315.567 537.758 309.345 556.448 309.345C602.183 309.345 635.648 352.453 624.304 396.759L603.301 478.897C600.353 490.424 593.653 500.642 584.256 507.94C574.859 515.238 563.301 519.201 551.403 519.204Z" fill="#FFB7D5"/>
<path d="M349.942 645.009V659.427H479.34V645.009H349.942Z" fill="#A15842"/>
<path d="M500.654 711.532L466.998 511.196H362.276L328.619 711.532C328.46 712.485 328.511 713.461 328.767 714.392C329.024 715.323 329.48 716.188 330.105 716.925C330.73 717.662 331.507 718.254 332.384 718.66C333.26 719.066 334.215 719.276 335.181 719.275C336.699 719.274 338.171 718.754 339.352 717.801C340.534 716.849 341.355 715.521 341.679 714.038L385.762 511.196H443.543L487.61 714.038C487.933 715.522 488.753 716.85 489.935 717.803C491.117 718.756 492.59 719.275 494.108 719.275C495.073 719.273 496.026 719.062 496.9 718.655C497.775 718.248 498.551 717.655 499.173 716.919C499.796 716.182 500.251 715.318 500.507 714.388C500.763 713.458 500.813 712.483 500.654 711.532Z" fill="#A15842"/>
<path d="M457.139 645.009V659.427H586.536V645.009H457.139Z" fill="#FFBE21"/>
<path d="M607.851 711.532L574.163 511.196H469.481L435.824 711.532C435.665 712.485 435.716 713.461 435.972 714.392C436.229 715.323 436.685 716.188 437.31 716.925C437.935 717.662 438.712 718.254 439.589 718.66C440.465 719.066 441.42 719.276 442.386 719.275C443.903 719.275 445.375 718.755 446.556 717.803C447.736 716.85 448.555 715.521 448.876 714.038L492.943 511.196H550.732L594.799 714.038C595.122 715.523 595.944 716.853 597.127 717.806C598.311 718.759 599.786 719.277 601.305 719.275C602.27 719.273 603.223 719.062 604.097 718.655C604.972 718.248 605.748 717.655 606.37 716.919C606.993 716.182 607.448 715.318 607.704 714.388C607.96 713.458 608.01 712.483 607.851 711.532Z" fill="#FFBE21"/>
<path d="M502.083 478.898L514.92 428.692H429.844C413.161 428.693 396.953 434.246 383.775 444.477C370.596 454.708 361.199 469.034 357.063 485.197L348.369 519.205H450.177C462.077 519.203 473.637 515.241 483.035 507.943C492.434 500.645 499.135 490.426 502.083 478.898Z" fill="#FFB7D5"/>
<path d="M353.901 504.252H461.912" stroke="#A15842" stroke-width="4" stroke-linecap="round" stroke-linejoin="round"/>
<path d="M441.309 503.749L460.236 429.746" stroke="#A15842" stroke-width="4" stroke-linecap="round" stroke-linejoin="round"/>
<path d="M614.877 426.975H563.785" stroke="#A15842" stroke-width="4" stroke-linecap="round" stroke-linejoin="round"/>
<path d="M624.456 391.051H558.995" stroke="#A15842" stroke-width="4" stroke-linecap="round" stroke-linejoin="round"/>
<path d="M386.009 374.83C386.009 374.83 321.961 392.273 294.755 405.884C249.898 428.308 250.05 443.109 222.7 525.966C197.449 602.539 194.671 639.653 159.841 641.121C133.249 642.239 124.532 650.941 120.221 662.867L225.446 712.794C226.652 713.364 228.03 713.453 229.299 713.04C230.568 712.627 231.632 711.745 232.271 710.574C232.923 709.377 233.082 707.973 232.713 706.661C232.345 705.349 231.479 704.232 230.299 703.549L228.088 702.272C237.867 690.425 256.731 665.183 275.54 626.84L287.514 632.428C287.514 632.428 306.857 607.289 309.923 578.774C313.914 541.948 311.519 517.128 328.34 502.719L524.484 374.798L386.009 374.83Z" fill="#FF7235"/>
<path d="M149.503 647.036C151.587 642.702 163.162 616.294 169.82 619.487C178.482 623.638 156.001 650.15 156.001 650.15L149.503 647.036Z" fill="#30242A"/>
<path d="M120.213 663.242L225.438 713.16C226.656 713.742 228.052 713.829 229.333 713.403C230.614 712.977 231.68 712.072 232.308 710.877C232.936 709.682 233.077 708.291 232.701 706.994C232.325 705.698 231.461 704.598 230.292 703.924L228.08 702.647L228.304 702.375L155.977 668.232C157.061 665.229 157.821 662.119 158.244 658.955C169.069 660.831 190.975 662.851 191.087 653.822C191.206 645.408 167.281 648.785 158.54 651.164C158.351 647.93 157.723 644.736 156.672 641.672C132.555 643.332 124.348 651.794 120.213 663.242Z" fill="#30242A"/>
<path d="M294.755 405.883C289.717 408.398 285.255 410.817 281.255 413.244L275.116 432.906L298.746 416.261L320.532 433.633L312.501 409.819L337.177 398.515L318.105 396.12C310.154 398.957 302.359 402.216 294.755 405.883Z" fill="#FFB7D5"/>
<path d="M364.376 395.649L362.779 406.051L373.189 402.052L364.376 395.649Z" fill="#FFB7D5"/>
<path d="M304.334 447.684L289.127 467.697L267.509 457.295L280.313 478.905L260.3 495.718L285.917 492.517L294.731 522.142L303.536 492.517L331.557 484.51L304.334 473.301V447.684Z" fill="#FFB7D5"/>
<path d="M218.836 600.496L220.704 595.163L246.25 593.806L225.494 579.676L234.738 557.539L213.831 571.477L209.839 567.167C206.646 577.68 203.82 587.045 201.058 595.275H201.185C201.489 594.373 201.792 593.463 202.095 592.537L218.836 600.496Z" fill="#FFB7D5"/>
<path d="M218.836 600.496L202.071 592.568C201.768 593.494 201.465 594.404 201.161 595.307C191.031 625.483 181.802 640.571 159.857 641.497C158.779 641.497 157.741 641.6 156.719 641.672C157.771 644.737 158.399 647.93 158.587 651.164C167.369 648.769 191.254 645.408 191.135 653.823C191.007 662.851 169.117 660.832 158.292 658.956C157.861 662.121 157.093 665.23 156.001 668.232L228.328 702.376C238.163 690.401 256.867 665.286 275.532 627.263L218.836 600.496Z" fill="#EAA58B"/>
<path d="M282.717 539.752L280.322 561.37L257.905 560.572L277.121 574.989L269.936 600.607L289.167 583.787L306.45 595.314C306.929 593.787 307.368 592.241 307.768 590.676L301.142 574.175L311.408 562.927C311.576 560.835 311.735 558.776 311.887 556.772L293.957 559.766L282.717 539.752Z" fill="#FFB7D5"/>
<path d="M232.782 494.815C230.763 501.058 228.591 507.836 226.196 515.204L247.495 516.505L232.782 494.815Z" fill="#FFB7D5"/>
<path d="M307.991 689.842C308.327 685.052 309.372 656.233 316.733 656.752C326.312 657.423 315.176 690.345 315.176 690.345L307.991 689.842Z" fill="#30242A"/>
<path d="M485.287 376.003C485.287 376.003 405.225 390.851 361.19 409.26C316.732 427.853 317.163 460.871 325.163 550.561C332.347 630.855 345.184 669.844 318.776 681.851C294.555 692.867 286.141 706.678 287.291 719.307H406.518C407.19 719.307 407.856 719.175 408.476 718.918C409.097 718.661 409.661 718.284 410.136 717.809C410.612 717.334 410.989 716.769 411.246 716.149C411.503 715.528 411.635 714.862 411.635 714.19C411.635 712.833 411.096 711.532 410.136 710.572C409.177 709.612 407.875 709.073 406.518 709.073H404.506C408.266 696.771 413.719 672.758 414.469 633.018H429.254C429.254 633.018 436.854 597.893 428.456 566.567C419.674 533.749 411.643 528.145 406.845 505.728H478.589C533.377 505.728 574.386 455.051 562.468 401.581C558.748 384.872 553.351 376.035 553.351 376.035L485.287 376.003Z" fill="#FF7235"/>
<path d="M435.648 422.864L420.952 441.353L398.064 433.49L411.627 455.691L394.017 479.712L417.231 470.1L430.172 493.954L431.641 467.697L454.057 462.899L434.85 450.885L435.648 422.864Z" fill="#FFB7D5"/>
<path d="M403.668 565.586L417.24 587.787L399.629 611.808L422.844 602.228L431.449 618.091C432.711 605.765 433.333 587.531 429.31 570.025L426.564 573.481L403.668 565.586Z" fill="#FFB7D5"/>
<path d="M343.811 632.986L342.781 620.612L368.774 610.585L344.17 605.484L346.885 578.478L330.918 599.369L330.439 599.17C331.972 612.062 333.313 623.327 334.064 633.074V632.986H343.811Z" fill="#FFB7D5"/>
<path d="M406.518 709.041H404.506C408.266 696.739 413.719 672.726 414.469 632.986H334.039V633.058C334.103 633.857 334.159 634.655 334.215 635.453C334.215 635.525 334.215 635.605 334.215 635.677C335.884 660.624 333.161 675.217 318.744 681.771C294.523 692.788 286.109 706.598 287.259 719.228H406.518C407.875 719.228 409.177 718.688 410.136 717.729C411.096 716.769 411.635 715.468 411.635 714.11C411.635 712.753 411.096 711.452 410.136 710.492C409.177 709.532 407.875 708.993 406.518 708.993V709.041Z" fill="#EAA58B"/>
<path d="M513.268 378.07L476.49 381.327L480.322 396.112L456.796 408.661L486.102 412.581L496.017 434.543L506.211 411.799L536.02 407.089L510.131 393.757L513.268 378.07Z" fill="#FFB7D5"/>
<path d="M337.975 482.107L346.757 454.087L372.374 458.078L352.361 440.468L366.73 423.655L340.314 433.235L336.091 425.994C329.298 433.69 325.194 443.246 322.999 455.532L327.501 455.675L337.975 482.107Z" fill="#FFB7D5"/>
<path d="M406.518 394.204C401.113 395.705 395.732 397.278 390.479 398.898L411.643 413.268L406.518 394.204Z" fill="#FFB7D5"/>
<path d="M371.6 523.739L360.392 500.524L354.787 526.142L333.976 524.546L353.183 541.358L341.176 569.379L362.02 549.948L379.296 569.866L374.003 539.753L391.613 516.538L371.6 523.739Z" fill="#FFB7D5"/>
<path d="M324.077 699.677C334.662 696.756 355.322 689.235 351.586 681.021C348.106 673.357 327.909 686.609 321.019 692.509C319.28 689.318 317.059 686.415 314.433 683.903C293.533 694.544 286.197 707.429 287.291 719.276H406.518C407.875 719.276 409.177 718.737 410.136 717.777C411.096 716.817 411.635 715.516 411.635 714.159C411.635 712.801 411.096 711.5 410.136 710.54C409.177 709.581 407.875 709.042 406.518 709.042H325.969C325.669 705.862 325.035 702.723 324.077 699.677Z" fill="#30242A"/>
<path d="M406.518 507.493L385.905 507.205" stroke="#A15842" stroke-width="4" stroke-miterlimit="10" stroke-linecap="round"/>
<path d="M421.845 390.708C400.491 396.152 377.667 402.834 360.376 410.051C323.494 425.498 317.514 450.853 321.099 510.311" stroke="#A15842" stroke-width="4" stroke-miterlimit="10" stroke-linecap="round"/>
<path d="M692.856 386.039H673.249V719.277H692.856V386.039Z" fill="#FFBE21"/>
<path d="M692.856 390.619H673.249" stroke="#A15842" stroke-width="4" stroke-miterlimit="10"/>
<path d="M408.426 135.457C397.25 133.861 371.648 145.875 370.802 169.625C369.956 193.375 391.159 201.006 394.552 202.707L443.751 195.067L447.144 140.782L408.426 135.457Z" fill="#A15842"/>
<path d="M495.345 76.4779C516.464 76.4779 533.584 59.3578 533.584 38.239C533.584 17.1202 516.464 0 495.345 0C474.227 0 457.106 17.1202 457.106 38.239C457.106 59.3578 474.227 76.4779 495.345 76.4779Z" fill="#A15842"/>
<path d="M470.542 64.535C472.873 65.6127 453.242 19.0314 443.224 26.296C433.796 33.1535 458.703 59.0746 470.542 64.535Z" fill="#30242A"/>
<path d="M471.628 67.3853C473.768 69.9399 523.853 52.4171 516.924 42.3105C510.298 32.5871 469.489 64.8228 471.628 67.3853Z" fill="#30242A"/>
<path d="M538.119 195.498C538.119 195.498 571.744 167.477 550.094 136.255C536.315 116.354 498.85 124.281 498.85 124.281C499.76 113.352 502.73 81.8667 479.052 64.5674C455.374 47.2681 425.334 56.3768 414.389 70.0278C403.444 83.6789 406.199 109.185 402.558 127.394C398.918 145.604 401.345 157.985 412.569 163.813C422.78 169.114 434.794 165.913 434.794 165.913L433.517 185.128C433.517 185.128 410.366 185.998 396.18 191.131C361.996 203.505 301.94 288.365 301.94 288.365C264.315 286.769 229.086 285.172 229.086 285.172L247.503 339.617C247.503 339.617 293.933 354.824 327.557 346.003C361.669 337.07 394.008 289.163 394.008 289.163L405.185 321.184L385.969 374.822H553.295L525.274 325.183C530.12 281.164 538.119 195.498 538.119 195.498Z" fill="#EAA58B"/>
<path d="M484.353 183.133L440.446 262.748L422.484 185.927C414.589 186.725 404.067 188.274 396.26 191.1C361.996 203.506 301.94 288.366 301.94 288.366C264.315 286.769 229.086 285.173 229.086 285.173L247.503 339.617C247.503 339.617 293.933 354.825 327.557 346.004C361.669 337.071 394.008 289.164 394.008 289.164L405.185 321.184L385.969 374.823H553.295L525.274 325.192C530.064 281.157 538.047 195.491 538.047 195.491C530.634 190.978 522.518 187.74 514.034 185.911C504.478 183.756 493.973 185.041 484.353 183.133Z" fill="#4756DF"/>
<path d="M256.97 369.226H395.621L364.095 269.661C363.169 266.727 361.331 264.165 358.849 262.346C356.367 260.527 353.37 259.547 350.293 259.547H233.117C230.84 259.545 228.595 260.081 226.564 261.111C224.534 262.14 222.774 263.634 221.429 265.471C220.084 267.308 219.192 269.437 218.825 271.684C218.457 273.931 218.625 276.233 219.314 278.403L245.371 360.74C246.153 363.203 247.698 365.354 249.784 366.879C251.869 368.405 254.386 369.227 256.97 369.226Z" fill="#30242A"/>
<path d="M277.631 304.587C281.311 299.557 298.004 312.841 299.233 313.935C299.872 312.841 308.565 299.565 314.936 304.587C320.468 308.946 308.31 328.416 305.077 333.382C304.941 333.532 304.776 333.653 304.591 333.735C304.406 333.817 304.205 333.86 304.003 333.86C303.8 333.86 303.6 333.817 303.415 333.735C303.23 333.653 303.065 333.532 302.929 333.382C297.03 328.416 274.438 308.946 277.631 304.587Z" fill="#A15842"/>
<path d="M297.858 307.953C299.251 307.519 299.304 303.711 297.976 299.446C296.648 295.182 294.442 292.077 293.048 292.511C291.655 292.945 291.602 296.754 292.93 301.018C294.258 305.282 296.465 308.387 297.858 307.953Z" fill="#A15842"/>
<path d="M476.13 358.016C476.531 359.304 476.624 360.669 476.402 361.999C476.18 363.33 475.648 364.59 474.849 365.677C474.051 366.764 473.008 367.649 471.805 368.26C470.602 368.87 469.272 369.19 467.923 369.193H256.97C254.386 369.193 251.869 368.371 249.784 366.845C247.698 365.32 246.153 363.17 245.371 360.707L244.509 357.984L476.13 358.016Z" fill="#30242A"/>
<path d="M726.639 369.226H108.581V389.239H726.639V369.226Z" fill="#FFBE21"/>
<path d="M603.293 478.898L616.13 428.692H541.249C524.566 428.693 508.359 434.247 495.182 444.478C482.006 454.709 472.609 469.035 468.475 485.197L459.773 519.205H551.379C563.28 519.204 574.841 515.242 584.241 507.944C593.64 500.646 600.343 490.427 603.293 478.898Z" fill="#FFB7D5"/>
<path d="M461.546 506.039L458.584 518.557" stroke="#A15842" stroke-width="4" stroke-linecap="round" stroke-linejoin="round"/>
<path d="M222.413 288.054C213.097 292.708 208.442 300.467 208.442 305.904C208.442 313.839 216.521 315.332 216.521 315.332C216.521 315.332 210.494 324.808 220.976 329.254C220.976 329.254 220.976 339.01 230.739 339.01C230.739 339.01 229.446 346.618 239.632 347.336C249.819 348.055 260.3 342.738 261.187 339.297C262.2 335.234 259.462 331.833 252.07 330.755C252.07 330.755 262.049 326.093 260.468 320.21C258.887 314.326 252.142 314.462 252.142 314.462C252.142 314.462 258.6 310.59 255.151 304.882C251.703 299.174 245.109 301.154 245.109 301.154C245.109 301.154 246.833 297.162 243.815 294.121C240.223 290.528 224.776 295.063 224.776 295.063L222.413 288.054Z" fill="#EAA58A"/>
<path d="M230.811 339.385C239.217 337.37 247.373 334.424 255.127 330.604" stroke="#A15842" stroke-width="4" stroke-miterlimit="10" stroke-linecap="round"/>
<path d="M220.951 329.207C232.606 326.011 243.734 321.135 253.985 314.733" stroke="#A15842" stroke-width="4" stroke-miterlimit="10" stroke-linecap="round"/>
<path d="M215.723 316.465C226.523 313.269 236.728 308.326 245.931 301.832" stroke="#A15842" stroke-width="4" stroke-miterlimit="10" stroke-linecap="round"/>
<path d="M550.134 136.255C536.355 116.354 498.891 124.281 498.891 124.281C499.801 113.352 502.77 81.8667 479.093 64.5674C455.415 47.2681 425.374 56.3768 414.43 70.0278C409.975 75.616 407.796 83.136 406.526 91.3427C413.791 92.5641 424.448 90.0654 424.448 90.0654C439.018 106.455 452.07 109.057 452.07 109.057C462.264 98.8627 480.146 99.198 483.052 114.645C486.07 130.683 460.452 137.892 460.452 137.892C460.452 137.892 458.057 166.711 470.83 177.121C474.75 180.228 479.385 182.306 484.314 183.164C493.893 185.072 504.439 183.787 514.066 185.926C522.55 187.755 530.667 190.993 538.08 195.506C541.004 192.929 543.677 190.079 546.063 186.996C554.461 176.347 564.504 157.011 550.134 136.255Z" fill="#A15842"/>
<path d="M439.647 84.2217C434.857 88.2132 429.269 90.6081 422.835 92.2048" stroke="#EAA58B" stroke-width="4" stroke-miterlimit="10" stroke-linecap="round"/>
<path d="M434.53 167.709C438.248 166.469 441.834 164.864 445.236 162.919" stroke="#A15842" stroke-width="4" stroke-miterlimit="10" stroke-linecap="round"/>
<path d="M461.434 121.791L468.714 117.24" stroke="#A15842" stroke-width="4" stroke-miterlimit="10" stroke-linecap="round"/>
<path d="M419.658 143.162C421.167 144.096 426.843 144.822 429.094 140.487" stroke="#A15842" stroke-width="4" stroke-miterlimit="10" stroke-linecap="round"/>
<path d="M434.49 122.676C435.998 122.676 437.22 121.454 437.22 119.946C437.22 118.438 435.998 117.216 434.49 117.216C432.982 117.216 431.76 118.438 431.76 119.946C431.76 121.454 432.982 122.676 434.49 122.676Z" fill="#30242A"/>
<path d="M411.858 119.059C413.366 119.059 414.588 117.837 414.588 116.329C414.588 114.821 413.366 113.599 411.858 113.599C410.35 113.599 409.128 114.821 409.128 116.329C409.128 117.837 410.35 119.059 411.858 119.059Z" fill="#30242A"/>
<path d="M419.546 126.875C419.003 128.591 418.532 130.459 418.844 131.082C419.271 131.871 419.921 132.518 420.712 132.942" stroke="#A15842" stroke-width="4" stroke-miterlimit="10" stroke-linecap="round"/>
<path d="M464.859 148.542C470.141 148.542 474.422 144.26 474.422 138.978C474.422 133.696 470.141 129.414 464.859 129.414C459.577 129.414 455.295 133.696 455.295 138.978C455.295 144.26 459.577 148.542 464.859 148.542Z" fill="#F5EBDD"/>
<path d="M418.851 117.864C420.506 109.36 415.641 101.259 407.985 99.7692C400.329 98.2796 392.781 103.966 391.127 112.47C389.472 120.974 394.337 129.076 401.993 130.565C409.649 132.055 417.196 126.368 418.851 117.864Z" stroke="#30242A" stroke-width="4" stroke-miterlimit="10" stroke-linecap="round"/>
<path d="M453.537 122.118C455.191 113.614 450.326 105.513 442.67 104.023C435.014 102.534 427.467 108.22 425.812 116.724C424.158 125.228 429.023 133.33 436.679 134.819C444.334 136.309 451.882 130.622 453.537 122.118Z" stroke="#30242A" stroke-width="4" stroke-miterlimit="10" stroke-linecap="round"/>
<path d="M419.507 116.577L425.023 117.168" stroke="#30242A" stroke-width="4" stroke-miterlimit="10" stroke-linecap="round"/>
<path d="M500.719 125.335L499.13 135.553" stroke="#30242A" stroke-width="4" stroke-miterlimit="10" stroke-linecap="round"/>
<path d="M385.211 268.352L392.939 290.84" stroke="#30242A" stroke-width="4" stroke-linecap="round" stroke-linejoin="round"/>
<path d="M426.037 319.587H405.72" stroke="#30242A" stroke-width="4" stroke-linecap="round" stroke-linejoin="round"/>
<path d="M442.051 261.948L448.453 293.17V321.989" stroke="#30242A" stroke-width="4" stroke-linecap="round" stroke-linejoin="round"/>
<path d="M399.469 190.404L411.627 217.914L397.218 216.317L448.453 293.171" stroke="#30242A" stroke-width="4" stroke-linecap="round" stroke-linejoin="round"/>
<path d="M517.929 187.132L497.293 216.318L516.509 214.713L446.05 277.157" stroke="#30242A" stroke-width="4" stroke-linecap="round" stroke-linejoin="round"/>
<path d="M528.659 284.996L513.308 263.554" stroke="#30242A" stroke-width="4" stroke-linecap="round" stroke-linejoin="round"/>
<path d="M546.421 364.028C538.063 361.242 523.062 355.862 514.018 350.457" stroke="#30242A" stroke-width="4" stroke-linecap="round" stroke-linejoin="round"/>
<path d="M315.87 165.386C324.542 165.386 331.572 158.356 331.572 149.683C331.572 141.011 324.542 133.98 315.87 133.98C307.197 133.98 300.167 141.011 300.167 149.683C300.167 158.356 307.197 165.386 315.87 165.386Z" fill="#FFB7D5"/>
<path d="M268.94 87.191L259.797 76.1672C258.39 74.4703 255.873 74.2355 254.177 75.6428L253.98 75.8059C252.283 77.2131 252.048 79.7295 253.456 81.4263L262.598 92.4502C264.005 94.1471 266.522 94.3818 268.219 92.9746L268.415 92.8115C270.112 91.4042 270.347 88.8879 268.94 87.191Z" fill="#4756DF"/>
<path d="M285.382 100.587L276.186 89.4902L110.88 226.56C109.439 227.756 108.531 229.476 108.358 231.341C108.184 233.207 108.758 235.065 109.954 236.507L110.138 236.73C110.729 237.444 111.456 238.034 112.276 238.466C113.096 238.899 113.992 239.166 114.915 239.252C115.838 239.338 116.769 239.242 117.655 238.968C118.54 238.694 119.363 238.248 120.077 237.656L171.759 194.787V345.212H186.185V182.812L285.382 100.587Z" fill="#3EC1F3"/>
<path d="M258.743 103.78L263.349 109.368C264.954 111.307 266.173 113.534 266.942 115.931" stroke="#4756DF" stroke-width="4" stroke-miterlimit="10"/>
<path d="M178.968 198.117C189.36 198.117 197.785 189.692 197.785 179.301C197.785 168.909 189.36 160.484 178.968 160.484C168.577 160.484 160.152 168.909 160.152 179.301C160.152 189.692 168.577 198.117 178.968 198.117Z" fill="#4756DF"/>
<path d="M178.968 186.533C182.963 186.533 186.201 183.295 186.201 179.3C186.201 175.306 182.963 172.067 178.968 172.067C174.974 172.067 171.735 175.306 171.735 179.3C171.735 183.295 174.974 186.533 178.968 186.533Z" fill="#3EC1F3"/>
<path d="M328.762 140.766L304.693 160.659" stroke="#A15842" stroke-width="4" stroke-miterlimit="10"/>
<path d="M297.581 98.5752C292.52 97.9805 287.883 95.4589 284.633 91.5341L278.246 83.8144C275.989 81.0969 272.745 79.3863 269.228 79.0585C265.71 78.7307 262.206 79.8125 259.486 82.0661C258.14 83.1825 257.026 84.5532 256.21 86.0998C255.394 87.6464 254.89 89.3388 254.727 91.0801C254.565 92.8215 254.747 94.5778 255.264 96.2487C255.78 97.9196 256.621 99.4724 257.738 100.818L264.124 108.562C267.36 112.476 268.969 117.482 268.619 122.548L267.022 145.891C266.231 157.312 269.13 168.686 275.292 178.334L277.336 181.527L353.918 118.006L351.172 115.427C342.836 107.585 332.202 102.629 320.836 101.289L297.581 98.5752Z" fill="#3EC1F3"/>
<path d="M186.185 345.213H171.759L150.437 351.025C146.444 352.114 142.921 354.486 140.409 357.775C137.898 361.064 136.538 365.088 136.538 369.226H221.398C221.398 365.087 220.037 361.062 217.524 357.773C215.011 354.484 211.486 352.112 207.492 351.025L186.185 345.213Z" fill="#3EC1F3"/>
<path d="M339.388 106.71L269.305 164.635" stroke="#4756DF" stroke-width="4" stroke-miterlimit="10" stroke-linecap="round"/>
<path d="M171.408 343.561H186.185" stroke="#4756DF" stroke-width="4" stroke-miterlimit="10" stroke-linecap="round"/>
<path d="M139.34 359.247H218.117" stroke="#4756DF" stroke-width="4" stroke-miterlimit="10" stroke-linecap="round"/>
<path d="M593.37 575.173C594.967 561.602 594.168 531.138 576.558 507.924C558.947 484.709 582.944 494.352 590.129 500.739C601.625 510.957 611.747 520.752 620.552 553.579L593.37 575.173Z" fill="#30242A"/>
<path d="M806.015 719.276H900V716.203C899.998 711.87 898.275 707.715 895.211 704.653C892.147 701.59 887.991 699.869 883.659 699.869H805.528L806.015 719.276Z" fill="#A15842"/>
<path d="M576.749 629.546L596.571 719.276H633.405V713.688C633.405 710.085 631.977 706.629 629.433 704.077C626.889 701.526 623.437 700.087 619.834 700.077C619.834 700.077 638.243 686.274 649.451 672.663C649.451 672.663 668.666 696.077 695.889 692.07L697.861 701.649C698.886 706.621 701.593 711.089 705.526 714.299C709.459 717.509 714.378 719.267 719.455 719.276H808.73C848.326 719.276 867.804 713.233 868.922 690.689C868.956 689.829 868.817 688.971 868.511 688.166C868.206 687.361 867.741 686.627 867.144 686.007C866.548 685.386 865.832 684.893 865.04 684.556C864.248 684.219 863.396 684.046 862.536 684.047H837.612C836.585 684.048 835.57 683.818 834.643 683.374C833.716 682.931 832.9 682.285 832.256 681.484L821.646 668.32C818.501 664.424 814.304 661.513 809.554 659.933C804.803 658.352 799.699 658.168 794.847 659.403L773.508 664.855C773.508 664.855 735.7 610.522 701.453 572.786C668.722 536.759 607.157 532.871 582.904 579.796C575.107 595.152 572.929 612.753 576.749 629.546Z" fill="#A15842"/>
<path d="M799.925 719.276V716.203C799.925 714.057 799.502 711.932 798.68 709.95C797.859 707.968 796.655 706.167 795.138 704.65C793.62 703.133 791.819 701.931 789.836 701.11C787.853 700.29 785.729 699.868 783.583 699.869H772.702" stroke="#30242A" stroke-width="4" stroke-miterlimit="10"/>
<path d="M650.937 673.3C656.525 666.65 675.596 642.166 674.231 618.217C672.77 592.591 657.419 578.988 657.419 578.988" stroke="#30242A" stroke-width="4" stroke-miterlimit="10" stroke-linecap="round"/>
<path d="M691.043 658.237C691.043 658.237 692.065 677.181 694.116 691.327" stroke="#30242A" stroke-width="4" stroke-miterlimit="10" stroke-linecap="round"/>
<path d="M614.19 711.077V718.477" stroke="#30242A" stroke-width="4" stroke-miterlimit="10" stroke-linecap="round"/>
<path d="M622.995 711.077V718.477" stroke="#30242A" stroke-width="4" stroke-miterlimit="10" stroke-linecap="round"/>
<path d="M782.313 711.077V718.477" stroke="#30242A" stroke-width="4" stroke-miterlimit="10" stroke-linecap="round"/>
<path d="M791.119 711.077V718.477" stroke="#30242A" stroke-width="4" stroke-miterlimit="10" stroke-linecap="round"/>
<path d="M814.733 689.459C816.722 689.459 818.334 687.847 818.334 685.858C818.334 683.87 816.722 682.258 814.733 682.258C812.745 682.258 811.133 683.87 811.133 685.858C811.133 687.847 812.745 689.459 814.733 689.459Z" fill="#30242A"/>
<path d="M795.087 659.331V659.235L773.477 664.824L794.815 659.371L795.087 659.331Z" fill="#30242A"/>
<path d="M741.904 700.229C735.645 703.422 726.8 709.673 727.534 719.141H762.293L769.597 707.622C770.791 705.737 772.441 704.185 774.395 703.109C776.349 702.033 778.543 701.468 780.773 701.467H783.096L795.007 659.571L794.832 659.388L773.493 664.84L753.064 691.009C750.057 694.855 746.249 698.002 741.904 700.229Z" fill="#30242A"/>
<path d="M691.139 592.345C691.139 592.345 681.472 625.81 712.694 638.447C728.524 644.833 741.672 639.988 750.797 633.657C737.01 615.296 718.769 591.922 701.445 572.826C697.102 568.047 692.221 563.785 686.9 560.125C682.174 566.559 677.001 582.478 691.139 592.345Z" fill="#EAA58B"/>
<path d="M611.388 616.613C618.685 616.613 624.6 610.698 624.6 603.401C624.6 596.105 618.685 590.189 611.388 590.189C604.091 590.189 598.176 596.105 598.176 603.401C598.176 610.698 604.091 616.613 611.388 616.613Z" fill="#EAA58B"/>
<path d="M862.567 684.047H857.777C857.514 685.383 857.549 686.76 857.88 688.08C858.211 689.401 858.83 690.632 859.693 691.685C860.556 692.738 861.642 693.587 862.871 694.171C864.101 694.755 865.445 695.06 866.806 695.064C867.369 695.063 867.93 695.01 868.483 694.904C868.727 693.51 868.884 692.102 868.954 690.689C868.988 689.829 868.848 688.971 868.543 688.166C868.237 687.362 867.772 686.627 867.176 686.007C866.579 685.386 865.864 684.893 865.072 684.556C864.28 684.219 863.428 684.046 862.567 684.047Z" fill="#30242A"/>
<path d="M881.584 711.077V718.294" stroke="#30242A" stroke-width="4" stroke-miterlimit="10" stroke-linecap="round"/>
<path d="M890.389 711.077V718.294" stroke="#30242A" stroke-width="4" stroke-miterlimit="10" stroke-linecap="round"/>
<path d="M833.27 718.317C852.844 716.346 864.515 711.045 868.754 699.765" stroke="#30242A" stroke-width="4" stroke-linecap="round" stroke-linejoin="round"/>
<path d="M514.106 298.304C504.255 297.422 494.349 297.312 484.481 297.977C470.367 299.134 451.391 302.83 443.767 306.519C436.143 310.207 406.949 323.227 414.813 327.594C421.997 331.585 437.069 325.582 437.069 325.582C437.069 325.582 422.029 339.409 419.443 345.197C416.856 350.984 425.406 354.233 425.406 354.233C427.657 364.117 437.732 359.87 437.732 359.87C444.079 373.369 478.366 344.119 478.366 344.119C486.523 344.966 494.761 344.62 502.818 343.089C502.818 343.089 507.161 345.524 514.13 348.909L514.106 298.304Z" fill="#EAA58A"/>
<path d="M599.764 366.025C663.812 335.601 570.969 221.93 538.119 195.498L519.71 269.956L542.924 301.976C532.754 300.22 523.031 299.015 514.105 298.304V348.909C534.43 358.792 577.14 376.802 599.764 366.025Z" fill="#4756DF"/>
<path d="M434.004 326.42C439.688 321.718 449.124 314.118 456.165 309.536" stroke="#A15842" stroke-width="4" stroke-miterlimit="10" stroke-linecap="round"/>
<path d="M463.924 320.768C447.567 331.361 432.663 345.515 425.286 352.923" stroke="#A15842" stroke-width="4" stroke-miterlimit="10" stroke-linecap="round"/>
<path d="M471.181 332.751C460.005 340.423 447.033 352.054 438.562 360.037" stroke="#A15842" stroke-width="4" stroke-miterlimit="10" stroke-linecap="round"/>
<path d="M663.334 328.447C664.544 328.45 665.704 328.931 666.56 329.787C667.416 330.643 667.898 331.803 667.9 333.014V333.692C667.898 334.903 667.416 336.063 666.56 336.919C665.704 337.775 664.544 338.257 663.334 338.259H639.807V328.447H663.334ZM663.334 322.061H634.283C634.169 322.061 634.056 322.084 633.951 322.127C633.846 322.171 633.751 322.235 633.671 322.316C633.59 322.397 633.527 322.493 633.484 322.599C633.441 322.704 633.42 322.817 633.421 322.931V343.807C633.421 344.036 633.512 344.255 633.673 344.417C633.835 344.578 634.055 344.669 634.283 344.669H663.334C664.774 344.669 666.2 344.385 667.531 343.833C668.861 343.281 670.069 342.472 671.087 341.453C672.104 340.433 672.911 339.223 673.46 337.891C674.009 336.56 674.29 335.133 674.286 333.692V332.99C674.286 330.085 673.132 327.299 671.078 325.245C669.024 323.191 666.238 322.037 663.334 322.037V322.061Z" fill="#3EC1F3"/>
<path d="M628.208 318.621C604.418 318.621 593.426 299.661 593.426 299.661L609.392 369.226H646.976L662.942 299.661C659.234 305.506 654.101 310.313 648.026 313.63C641.95 316.946 635.13 318.664 628.208 318.621Z" fill="#3EC1F3"/>
<path d="M628.208 318.621C635.138 318.672 641.967 316.958 648.052 313.641C654.137 310.325 659.278 305.513 662.99 299.661H593.426C593.426 299.661 604.418 318.621 628.208 318.621Z" fill="#30242A"/>
</svg>
